<svg width="16" height="14" viewBox="0 0 16 14" fill="none" xmlns="http://www.w3.org/2000/svg">
<path d="M13.2833 4H2.71728C1.46445 4 0.453125 5.005 0.453125 6.25V10.75H3.47199V13.75H12.5286V10.75H15.5475V6.25C15.5475 5.005 14.5361 4 13.2833 4ZM11.0192 12.25H4.98143V8.5H11.0192V12.25ZM13.2833 7C12.8682 7 12.5286 6.6625 12.5286 6.25C12.5286 5.8375 12.8682 5.5 13.2833 5.5C13.6984 5.5 14.038 5.8375 14.038 6.25C14.038 6.6625 13.6984 7 13.2833 7ZM12.5286 0.25H3.47199V3.25H12.5286V0.25Z" fill="currentColor"/>
</svg>
